<svg xmlns="http://www.w3.org/2000/svg" width="720" height="244" viewBox="0 0 720 244" role="img" aria-labelledby="title desc">
<title id="title">다른 폴더에 설치한 이전 버전 바꾸기</title><desc id="desc">0.2.3 이하를 기본 위치 밖에 설치했다면 기존 MSI와 원래 경로를 지정해 제거한 뒤 새로 설치합니다. 경로가 불명확하면 먼저 확인하고 남은 폴더를 일괄 삭제하지 마세요.</desc>
<g font-family="Noto Sans CJK KR, Noto Sans KR, Malgun Gothic, Segoe UI, sans-serif">
<rect width="720" height="244" rx="4" fill="#fffdf9"/>
<text x="120.0" y="18" font-size="11" fill="#8a622f" font-weight="700" text-anchor="middle">01</text>
<g transform="translate(48 25)"><ellipse cx="72" cy="91" rx="55" ry="5" fill="#ded2c4" opacity=".5"/><path d="M19 35V20Q19 15 25 15H53L65 27H119Q125 27 125 33V78Q125 85 118 85H26Q19 85 19 78Z" fill="#ead7b9" stroke="#b7894e" stroke-width="2" stroke-linecap="round" stroke-linejoin="round"/><path d="M19 37H125L116 85H27Z" fill="#f4e7d2" stroke="#b7894e" stroke-width="2" stroke-linecap="round" stroke-linejoin="round"/><rect x="68" y="39" width="34" height="39" rx="3" fill="#fffdf9" stroke="#8a622f" stroke-width="2"/><rect x="77" y="48" width="34" height="39" rx="3" fill="#fffdf9" stroke="#8a622f" stroke-width="2"/></g>
<text x="120.0" y="155" font-size="18" fill="#2c2622" font-weight="700" text-anchor="middle">백업 후 정상 종료</text>
<text x="120.0" y="182" font-size="15" fill="#6e6258" font-weight="400" text-anchor="middle">데이터 폴더 전체 보관</text>
<text x="120.0" y="205" font-size="15" fill="#6e6258" font-weight="400" text-anchor="middle">기존 설치 경로 확인</text>
<path d="M227 71H253M246 64L253 71L246 78" fill="none" stroke="#8a622f" stroke-width="2" stroke-linecap="round" stroke-linejoin="round"/>
<text x="360.0" y="18" font-size="11" fill="#8a622f" font-weight="700" text-anchor="middle">02</text>
<g transform="translate(288 25)"><ellipse cx="72" cy="91" rx="55" ry="5" fill="#ded2c4" opacity=".5"/><rect x="14" y="10" width="116" height="71" rx="6" fill="#fffdf9" stroke="#8a622f" stroke-width="2"/><path d="M15 25H129" fill="none" stroke="#ded2c4" stroke-width="2" stroke-linecap="round" stroke-linejoin="round"/><circle cx="23" cy="18" r="2" fill="#b7894e"/><circle cx="31" cy="18" r="2" fill="#b7894e"/><circle cx="39" cy="18" r="2" fill="#b7894e"/><path d="M72 34V56M62 48L72 58L82 48" fill="none" stroke="#8a622f" stroke-width="3" stroke-linecap="round" stroke-linejoin="round"/><path d="M43 62V69H101V62" fill="none" stroke="#8a622f" stroke-width="3" stroke-linecap="round" stroke-linejoin="round"/></g>
<text x="360.0" y="155" font-size="18" fill="#2c2622" font-weight="700" text-anchor="middle">기존 버전 제거</text>
<text x="360.0" y="182" font-size="15" fill="#6e6258" font-weight="400" text-anchor="middle">0.2.3 이하 사용자 지정</text>
<text x="360.0" y="205" font-size="15" fill="#6e6258" font-weight="400" text-anchor="middle">옛 MSI와 원래 경로 지정</text>
<path d="M467 71H493M486 64L493 71L486 78" fill="none" stroke="#8a622f" stroke-width="2" stroke-linecap="round" stroke-linejoin="round"/>
<text x="600.0" y="18" font-size="11" fill="#8a622f" font-weight="700" text-anchor="middle">03</text>
<g transform="translate(528 25)"><ellipse cx="72" cy="91" rx="55" ry="5" fill="#ded2c4" opacity=".5"/><path d="M72 8L112 24V49Q112 75 72 91Q32 75 32 49V24Z" fill="#ece5d7" stroke="#8a622f" stroke-width="2" stroke-linecap="round" stroke-linejoin="round"/><path d="M52 48L66 63L93 34" fill="none" stroke="#8a622f" stroke-width="4" stroke-linecap="round" stroke-linejoin="round"/></g>
<text x="600.0" y="155" font-size="18" fill="#2c2622" font-weight="700" text-anchor="middle">성공 확인 후 설치</text>
<text x="600.0" y="182" font-size="15" fill="#6e6258" font-weight="400" text-anchor="middle">제거 성공 여부 확인</text>
<text x="600.0" y="205" font-size="15" fill="#6e6258" font-weight="400" text-anchor="middle">원하는 위치에 새 MSI 설치</text>
</g></svg>
