<svg xmlns="http://www.w3.org/2000/svg" width="360" height="432" viewBox="0 0 360 432" role="img" aria-labelledby="title desc">
<title id="title">결과 확인·제거</title><desc id="desc">큰 목록은 시트별로 살펴보고 실패 항목도 확인하세요. 프로그램을 제거해도 보관한 Excel 파일과 중복 검사의 저장 정보는 남습니다.</desc>
<g font-family="Malgun Gothic, Apple SD Gothic Neo, Noto Sans KR, sans-serif">
<rect width="360" height="432" rx="12" fill="#fffcf7"/>
<g transform="translate(9 19) scale(.79)"><ellipse cx="72" cy="91" rx="55" ry="5" fill="#d6e0dc" opacity=".5"/><rect x="22" y="9" width="100" height="78" rx="4" fill="#fff" stroke="#277a73" stroke-width="2"/><path d="M23 28H121M49 10V86M89 10V86M23 47H121M23 66H121" fill="none" stroke="#d6e0dc" stroke-width="2"/><rect x="24" y="11" width="96" height="15" rx="2" fill="#dcece7"/><rect x="50" y="29" width="38" height="18" rx="1" fill="#dcece7" stroke="#277a73" stroke-width="2"/><text x="68" y="43" font-size="12" fill="#277a73" font-weight="700" text-anchor="middle">A1</text><path d="M56 56H80M56 75H76" fill="none" stroke="#55676b" stroke-width="2" stroke-linecap="round" stroke-linejoin="round"/></g>
<text x="135" y="35" font-size="16" fill="#283f43" font-weight="700" text-anchor="start">결과를 나누어 확인</text>
<text x="135" y="60" font-size="13" fill="#55676b" font-weight="400" text-anchor="start">큰 목록은 여러 시트로</text>
<text x="135" y="80" font-size="13" fill="#55676b" font-weight="400" text-anchor="start">실패 항목은 Errors에서</text>
<path d="M18 144H342" fill="none" stroke="#d6e0dc" stroke-width="1" stroke-linecap="round" stroke-linejoin="round"/>
<g transform="translate(9 163) scale(.79)"><ellipse cx="72" cy="91" rx="55" ry="5" fill="#d6e0dc" opacity=".5"/><rect x="28" y="5" width="96" height="86" rx="6" fill="#fff" stroke="#277a73" stroke-width="2"/><path d="M43 21H94" fill="none" stroke="#55676b" stroke-width="3" stroke-linecap="round" stroke-linejoin="round"/><path d="M43 40H94" fill="none" stroke="#55676b" stroke-width="3" stroke-linecap="round" stroke-linejoin="round"/><rect x="34" y="49" width="84" height="19" rx="3" fill="#dcece7" stroke="#dcece7" stroke-width="2"/><path d="M43 60H94" fill="none" stroke="#277a73" stroke-width="3" stroke-linecap="round" stroke-linejoin="round"/><path d="M43 79H94" fill="none" stroke="#55676b" stroke-width="3" stroke-linecap="round" stroke-linejoin="round"/><path d="M10 60L10 84L18 78L24 90L31 86L24 74L35 72Z" fill="#fff" stroke="#283f43" stroke-width="2" stroke-linecap="round" stroke-linejoin="round"/></g>
<text x="135" y="179" font-size="16" fill="#283f43" font-weight="700" text-anchor="start">메뉴가 없을 때</text>
<text x="135" y="204" font-size="13" fill="#55676b" font-weight="400" text-anchor="start">새 탐색기 창에서 확인</text>
<text x="135" y="224" font-size="13" fill="#55676b" font-weight="400" text-anchor="start">계속 안 되면 배포 안내 확인</text>
<path d="M18 288H342" fill="none" stroke="#d6e0dc" stroke-width="1" stroke-linecap="round" stroke-linejoin="round"/>
<g transform="translate(9 307) scale(.79)"><ellipse cx="72" cy="91" rx="55" ry="5" fill="#d6e0dc" opacity=".5"/><path d="M42 29L47 86H97L102 29M36 28H108M57 27V16H87V27M61 42V72M83 42V72" fill="#eef4f1" stroke="#55676b" stroke-width="3" stroke-linecap="round" stroke-linejoin="round"/></g>
<text x="135" y="323" font-size="16" fill="#283f43" font-weight="700" text-anchor="start">설치된 앱에서 제거</text>
<text x="135" y="348" font-size="13" fill="#55676b" font-weight="400" text-anchor="start">만든 Excel 파일은 유지</text>
<text x="135" y="368" font-size="13" fill="#55676b" font-weight="400" text-anchor="start">중복 검사 저장 정보도 유지</text>
</g></svg>
