<svg xmlns="http://www.w3.org/2000/svg" width="320" height="432" viewBox="0 0 320 432" role="img" aria-labelledby="title desc">
<title id="title">탐색기에서 바로 바꾸기</title><desc id="desc">Windows 11에서는 더 많은 옵션 표시 안의 업무 상태 메뉴를 사용합니다. 상태가 저장되면 별도 창 없이 폴더 아이콘으로 확인합니다.</desc>
<g font-family="Noto Sans CJK KR, Noto Sans KR, Malgun Gothic, Segoe UI, sans-serif">
<rect width="320" height="432" rx="4" fill="#fffdf9"/>
<text x="27" y="18" font-size="10" fill="#8a622f" font-weight="700" text-anchor="middle">01</text>
<g transform="translate(9 19) scale(.72)"><ellipse cx="72" cy="91" rx="55" ry="5" fill="#ded2c4" opacity=".5"/><path d="M19 35V20Q19 15 25 15H53L65 27H119Q125 27 125 33V78Q125 85 118 85H26Q19 85 19 78Z" fill="#ead7b9" stroke="#b7894e" stroke-width="2" stroke-linecap="round" stroke-linejoin="round"/><path d="M19 37H125L116 85H27Z" fill="#f4e7d2" stroke="#b7894e" stroke-width="2" stroke-linecap="round" stroke-linejoin="round"/><path d="M41 55H83M41 65H68" fill="none" stroke="#b7894e" stroke-width="3" stroke-linecap="round" stroke-linejoin="round"/></g>
<text x="120" y="35" font-size="16" fill="#2c2622" font-weight="700" text-anchor="start">폴더 하나 우클릭</text>
<text x="120" y="60" font-size="14" fill="#6e6258" font-weight="400" text-anchor="start">업무 폴더 선택</text>
<text x="120" y="80" font-size="14" fill="#6e6258" font-weight="400" text-anchor="start">더 많은 옵션 표시</text>
<path d="M300 123V137M295 132L300 137L305 132" fill="none" stroke="#8a622f" stroke-width="2" stroke-linecap="round" stroke-linejoin="round"/>
<text x="27" y="162" font-size="10" fill="#8a622f" font-weight="700" text-anchor="middle">02</text>
<path d="M18 144H302" fill="none" stroke="#ded2c4" stroke-width="1" stroke-linecap="round" stroke-linejoin="round"/>
<g transform="translate(9 163) scale(.72)"><ellipse cx="72" cy="91" rx="55" ry="5" fill="#ded2c4" opacity=".5"/><rect x="28" y="5" width="96" height="86" rx="6" fill="#fffdf9" stroke="#8a622f" stroke-width="2"/><path d="M43 21H94" fill="none" stroke="#6e6258" stroke-width="3" stroke-linecap="round" stroke-linejoin="round"/><path d="M43 40H94" fill="none" stroke="#6e6258" stroke-width="3" stroke-linecap="round" stroke-linejoin="round"/><rect x="34" y="49" width="84" height="19" rx="3" fill="#ece5d7" stroke="#ece5d7" stroke-width="2"/><path d="M43 60H94" fill="none" stroke="#8a622f" stroke-width="3" stroke-linecap="round" stroke-linejoin="round"/><path d="M43 79H94" fill="none" stroke="#6e6258" stroke-width="3" stroke-linecap="round" stroke-linejoin="round"/><path d="M10 60L10 84L18 78L24 90L31 86L24 74L35 72Z" fill="#fffdf9" stroke="#2c2622" stroke-width="2" stroke-linecap="round" stroke-linejoin="round"/></g>
<text x="120" y="179" font-size="16" fill="#2c2622" font-weight="700" text-anchor="start">업무 상태 열기</text>
<text x="120" y="204" font-size="14" fill="#6e6258" font-weight="400" text-anchor="start">상황에 맞는 상태 선택</text>
<text x="120" y="224" font-size="14" fill="#6e6258" font-weight="400" text-anchor="start">선택하면 바로 저장</text>
<path d="M300 267V281M295 276L300 281L305 276" fill="none" stroke="#8a622f" stroke-width="2" stroke-linecap="round" stroke-linejoin="round"/>
<text x="27" y="306" font-size="10" fill="#8a622f" font-weight="700" text-anchor="middle">03</text>
<path d="M18 288H302" fill="none" stroke="#ded2c4" stroke-width="1" stroke-linecap="round" stroke-linejoin="round"/>
<g transform="translate(9 307) scale(.72)"><ellipse cx="72" cy="91" rx="55" ry="5" fill="#ded2c4" opacity=".5"/><path d="M19 35V20Q19 15 25 15H53L65 27H119Q125 27 125 33V78Q125 85 118 85H26Q19 85 19 78Z" fill="#ead7b9" stroke="#b7894e" stroke-width="2" stroke-linecap="round" stroke-linejoin="round"/><path d="M19 37H125L116 85H27Z" fill="#f4e7d2" stroke="#b7894e" stroke-width="2" stroke-linecap="round" stroke-linejoin="round"/><circle cx="108" cy="72" r="20" fill="#f2e9dd" stroke="#8a622f" stroke-width="2"/><path d="M98 72L105 79L119 64" fill="none" stroke="#8a622f" stroke-width="3" stroke-linecap="round" stroke-linejoin="round"/></g>
<text x="120" y="323" font-size="16" fill="#2c2622" font-weight="700" text-anchor="start">아이콘 확인</text>
<text x="120" y="348" font-size="14" fill="#6e6258" font-weight="400" text-anchor="start">성공하면 별도 창 없음</text>
<text x="120" y="368" font-size="14" fill="#6e6258" font-weight="400" text-anchor="start">주의·실패 시 안내 표시</text>
</g></svg>
