<svg xmlns="http://www.w3.org/2000/svg" width="720" height="244" viewBox="0 0 720 244" role="img" aria-labelledby="title desc">
<title id="title">설치하기</title><desc id="desc">설치 후 폴더의 오른쪽 클릭 메뉴에서 바로 상태를 바꿀 수 있습니다. 메뉴가 없으면 탐색기 창을 다시 여세요.</desc>
<g font-family="Noto Sans CJK KR, Noto Sans KR, Malgun Gothic, Segoe UI, sans-serif">
<rect width="720" height="244" rx="4" fill="#fffdf9"/>
<text x="120.0" y="18" font-size="11" fill="#8a622f" font-weight="700" text-anchor="middle">01</text>
<g transform="translate(48 25)"><ellipse cx="72" cy="91" rx="55" ry="5" fill="#ded2c4" opacity=".5"/><rect x="14" y="10" width="116" height="71" rx="6" fill="#fffdf9" stroke="#8a622f" stroke-width="2"/><path d="M15 25H129" fill="none" stroke="#ded2c4" stroke-width="2" stroke-linecap="round" stroke-linejoin="round"/><circle cx="23" cy="18" r="2" fill="#b7894e"/><circle cx="31" cy="18" r="2" fill="#b7894e"/><circle cx="39" cy="18" r="2" fill="#b7894e"/><path d="M72 34V56M62 48L72 58L82 48" fill="none" stroke="#8a622f" stroke-width="3" stroke-linecap="round" stroke-linejoin="round"/><path d="M43 62V69H101V62" fill="none" stroke="#8a622f" stroke-width="3" stroke-linecap="round" stroke-linejoin="round"/></g>
<text x="120.0" y="155" font-size="18" fill="#2c2622" font-weight="700" text-anchor="middle">MSI 열고 설치</text>
<text x="120.0" y="182" font-size="15" fill="#6e6258" font-weight="400" text-anchor="middle">현재 Windows 계정에 설치</text>
<text x="120.0" y="205" font-size="15" fill="#6e6258" font-weight="400" text-anchor="middle">관리자 권한 불필요</text>
<path d="M227 71H253M246 64L253 71L246 78" fill="none" stroke="#8a622f" stroke-width="2" stroke-linecap="round" stroke-linejoin="round"/>
<text x="360.0" y="18" font-size="11" fill="#8a622f" font-weight="700" text-anchor="middle">02</text>
<g transform="translate(288 25)"><ellipse cx="72" cy="91" rx="55" ry="5" fill="#ded2c4" opacity=".5"/><path d="M19 35V20Q19 15 25 15H53L65 27H119Q125 27 125 33V78Q125 85 118 85H26Q19 85 19 78Z" fill="#ead7b9" stroke="#b7894e" stroke-width="2" stroke-linecap="round" stroke-linejoin="round"/><path d="M19 37H125L116 85H27Z" fill="#f4e7d2" stroke="#b7894e" stroke-width="2" stroke-linecap="round" stroke-linejoin="round"/><path d="M41 55H83M41 65H68" fill="none" stroke="#b7894e" stroke-width="3" stroke-linecap="round" stroke-linejoin="round"/></g>
<text x="360.0" y="155" font-size="18" fill="#2c2622" font-weight="700" text-anchor="middle">폴더 우클릭</text>
<text x="360.0" y="182" font-size="15" fill="#6e6258" font-weight="400" text-anchor="middle">연습용 폴더 하나 선택</text>
<text x="360.0" y="205" font-size="15" fill="#6e6258" font-weight="400" text-anchor="middle">더 많은 옵션 표시</text>
<path d="M467 71H493M486 64L493 71L486 78" fill="none" stroke="#8a622f" stroke-width="2" stroke-linecap="round" stroke-linejoin="round"/>
<text x="600.0" y="18" font-size="11" fill="#8a622f" font-weight="700" text-anchor="middle">03</text>
<g transform="translate(528 25)"><ellipse cx="72" cy="91" rx="55" ry="5" fill="#ded2c4" opacity=".5"/><rect x="28" y="5" width="96" height="86" rx="6" fill="#fffdf9" stroke="#8a622f" stroke-width="2"/><path d="M43 21H94" fill="none" stroke="#6e6258" stroke-width="3" stroke-linecap="round" stroke-linejoin="round"/><path d="M43 40H94" fill="none" stroke="#6e6258" stroke-width="3" stroke-linecap="round" stroke-linejoin="round"/><rect x="34" y="49" width="84" height="19" rx="3" fill="#ece5d7" stroke="#ece5d7" stroke-width="2"/><path d="M43 60H94" fill="none" stroke="#8a622f" stroke-width="3" stroke-linecap="round" stroke-linejoin="round"/><path d="M43 79H94" fill="none" stroke="#6e6258" stroke-width="3" stroke-linecap="round" stroke-linejoin="round"/><path d="M10 60L10 84L18 78L24 90L31 86L24 74L35 72Z" fill="#fffdf9" stroke="#2c2622" stroke-width="2" stroke-linecap="round" stroke-linejoin="round"/></g>
<text x="600.0" y="155" font-size="18" fill="#2c2622" font-weight="700" text-anchor="middle">업무 상태 선택</text>
<text x="600.0" y="182" font-size="15" fill="#6e6258" font-weight="400" text-anchor="middle">원하는 상태 누르기</text>
<text x="600.0" y="205" font-size="15" fill="#6e6258" font-weight="400" text-anchor="middle">탐색기에서 아이콘 확인</text>
</g></svg>
