<svg xmlns="http://www.w3.org/2000/svg" width="320" height="432" viewBox="0 0 320 432" role="img" aria-labelledby="title desc">
<title id="title">버튼을 누를 수 없어요</title><desc id="desc">폴더 확인 전에는 상태를 바꿀 수 없습니다. 아이콘 위치는 상태를 먼저 저장한 뒤 별도의 적용 버튼으로 바꾸세요. 중단·읽기 오류는 화면의 안내를 따릅니다.</desc>
<g font-family="Noto Sans CJK KR, Noto Sans KR, Malgun Gothic, Segoe UI, sans-serif">
<rect width="320" height="432" rx="4" fill="#fffdf9"/>
<text x="27" y="18" font-size="10" fill="#8a622f" font-weight="700" text-anchor="middle">01</text>
<g transform="translate(9 19) scale(.72)"><ellipse cx="72" cy="91" rx="55" ry="5" fill="#ded2c4" opacity=".5"/><circle cx="62" cy="42" r="29" fill="#fffdf9" stroke="#8a622f" stroke-width="2"/><path d="M84 65L111 90" fill="none" stroke="#8a622f" stroke-width="8" stroke-linecap="round" stroke-linejoin="round"/><path d="M48 36H76M48 46H66" fill="none" stroke="#6e6258" stroke-width="3" stroke-linecap="round" stroke-linejoin="round"/></g>
<text x="120" y="35" font-size="16" fill="#2c2622" font-weight="700" text-anchor="start">폴더 확인부터</text>
<text x="120" y="60" font-size="14" fill="#6e6258" font-weight="400" text-anchor="start">경로를 입력·변경했다면</text>
<text x="120" y="80" font-size="14" fill="#6e6258" font-weight="400" text-anchor="start">폴더 확인 또는 Enter</text>
<path d="M300 123V137M295 132L300 137L305 132" fill="none" stroke="#8a622f" stroke-width="2" stroke-linecap="round" stroke-linejoin="round"/>
<text x="27" y="162" font-size="10" fill="#8a622f" font-weight="700" text-anchor="middle">02</text>
<path d="M18 144H302" fill="none" stroke="#ded2c4" stroke-width="1" stroke-linecap="round" stroke-linejoin="round"/>
<g transform="translate(9 163) scale(.72)"><ellipse cx="72" cy="91" rx="55" ry="5" fill="#ded2c4" opacity=".5"/><path d="M19 35V20Q19 15 25 15H53L65 27H119Q125 27 125 33V78Q125 85 118 85H26Q19 85 19 78Z" fill="#ead7b9" stroke="#b7894e" stroke-width="2" stroke-linecap="round" stroke-linejoin="round"/><path d="M19 37H125L116 85H27Z" fill="#f4e7d2" stroke="#b7894e" stroke-width="2" stroke-linecap="round" stroke-linejoin="round"/><circle cx="105" cy="72" r="17" fill="#fffdf9" stroke="#6e6258" stroke-width="2"/></g>
<text x="120" y="179" font-size="16" fill="#2c2622" font-weight="700" text-anchor="start">첫 상태 저장</text>
<text x="120" y="204" font-size="14" fill="#6e6258" font-weight="400" text-anchor="start">상태가 없으면 먼저 선택</text>
<text x="120" y="224" font-size="14" fill="#6e6258" font-weight="400" text-anchor="start">첫 저장은 이 PC 설정</text>
<path d="M300 267V281M295 276L300 281L305 276" fill="none" stroke="#8a622f" stroke-width="2" stroke-linecap="round" stroke-linejoin="round"/>
<text x="27" y="306" font-size="10" fill="#8a622f" font-weight="700" text-anchor="middle">03</text>
<path d="M18 288H302" fill="none" stroke="#ded2c4" stroke-width="1" stroke-linecap="round" stroke-linejoin="round"/>
<g transform="translate(9 307) scale(.72)"><ellipse cx="72" cy="91" rx="55" ry="5" fill="#ded2c4" opacity=".5"/><path d="M27 24H119" fill="none" stroke="#ded2c4" stroke-width="4" stroke-linecap="round" stroke-linejoin="round"/><circle cx="53" cy="24" r="9" fill="#fffdf9" stroke="#8a622f" stroke-width="2"/><path d="M27 49H119" fill="none" stroke="#ded2c4" stroke-width="4" stroke-linecap="round" stroke-linejoin="round"/><circle cx="93" cy="49" r="9" fill="#fffdf9" stroke="#8a622f" stroke-width="2"/><path d="M27 74H119" fill="none" stroke="#ded2c4" stroke-width="4" stroke-linecap="round" stroke-linejoin="round"/><circle cx="65" cy="74" r="9" fill="#fffdf9" stroke="#8a622f" stroke-width="2"/></g>
<text x="120" y="323" font-size="16" fill="#2c2622" font-weight="700" text-anchor="start">아이콘 위치 적용</text>
<text x="120" y="348" font-size="14" fill="#6e6258" font-weight="400" text-anchor="start">저장할 위치를 다시 선택</text>
<text x="120" y="368" font-size="14" fill="#6e6258" font-weight="400" text-anchor="start">아이콘 저장 위치 적용</text>
</g></svg>
