<svg xmlns="http://www.w3.org/2000/svg" width="720" height="244" viewBox="0 0 720 244" role="img" aria-labelledby="title desc">
<title id="title">모든 탭에서 먼저 확인할 것</title><desc id="desc">분석 목록은 아직 만들어진 파일이 아닙니다. 행이나 시트 설정을 바꾸면 다시 분석하세요.</desc>
<g font-family="Noto Sans CJK KR, Noto Sans KR, Malgun Gothic, Segoe UI, sans-serif">
<rect width="720" height="244" rx="4" fill="#fffdf9"/>
<text x="120.0" y="18" font-size="11" fill="#8a622f" font-weight="700" text-anchor="middle">01</text>
<g transform="translate(48 25)"><ellipse cx="72" cy="91" rx="55" ry="5" fill="#ded2c4" opacity=".5"/><circle cx="62" cy="42" r="29" fill="#fffdf9" stroke="#8a622f" stroke-width="2"/><path d="M84 65L111 90" fill="none" stroke="#8a622f" stroke-width="8" stroke-linecap="round" stroke-linejoin="round"/><path d="M48 36H76M48 46H66" fill="none" stroke="#6e6258" stroke-width="3" stroke-linecap="round" stroke-linejoin="round"/></g>
<text x="120.0" y="155" font-size="18" fill="#2c2622" font-weight="700" text-anchor="middle">원본 행 확인</text>
<text x="120.0" y="182" font-size="15" fill="#6e6258" font-weight="400" text-anchor="middle">시트·헤더·시작 행</text>
<text x="120.0" y="205" font-size="15" fill="#6e6258" font-weight="400" text-anchor="middle">실제 자료에 맞추기</text>
<path d="M227 71H253M246 64L253 71L246 78" fill="none" stroke="#8a622f" stroke-width="2" stroke-linecap="round" stroke-linejoin="round"/>
<text x="360.0" y="18" font-size="11" fill="#8a622f" font-weight="700" text-anchor="middle">02</text>
<g transform="translate(288 25)"><ellipse cx="72" cy="91" rx="55" ry="5" fill="#ded2c4" opacity=".5"/><rect x="22" y="9" width="100" height="78" rx="4" fill="#fffdf9" stroke="#8a622f" stroke-width="2"/><path d="M23 28H121M49 10V86M89 10V86M23 47H121M23 66H121" fill="none" stroke="#ded2c4" stroke-width="2"/><rect x="24" y="11" width="96" height="15" rx="2" fill="#ece5d7"/><path d="M49 48H120V65H49Z" fill="#f6e7cd" stroke="#b7894e" stroke-width="2" stroke-linecap="round" stroke-linejoin="round"/><text x="69" y="43" font-size="13" fill="#2c2622" font-weight="400" text-anchor="middle">A</text><text x="104" y="43" font-size="13" fill="#2c2622" font-weight="400" text-anchor="middle">3</text><text x="69" y="62" font-size="13" fill="#2c2622" font-weight="400" text-anchor="middle">B</text><text x="104" y="62" font-size="13" fill="#2c2622" font-weight="400" text-anchor="middle">1</text><text x="69" y="81" font-size="13" fill="#2c2622" font-weight="400" text-anchor="middle">C</text><text x="104" y="81" font-size="13" fill="#2c2622" font-weight="400" text-anchor="middle">2</text></g>
<text x="360.0" y="155" font-size="18" fill="#2c2622" font-weight="700" text-anchor="middle">출력 계획 분석</text>
<text x="360.0" y="182" font-size="15" fill="#6e6258" font-weight="400" text-anchor="middle">예상 이름·건수 확인</text>
<text x="360.0" y="205" font-size="15" fill="#6e6258" font-weight="400" text-anchor="middle">변경 뒤에는 다시 분석</text>
<path d="M467 71H493M486 64L493 71L486 78" fill="none" stroke="#8a622f" stroke-width="2" stroke-linecap="round" stroke-linejoin="round"/>
<text x="600.0" y="18" font-size="11" fill="#8a622f" font-weight="700" text-anchor="middle">03</text>
<g transform="translate(528 25)"><ellipse cx="72" cy="91" rx="55" ry="5" fill="#ded2c4" opacity=".5"/><path d="M72 8L112 24V49Q112 75 72 91Q32 75 32 49V24Z" fill="#ece5d7" stroke="#8a622f" stroke-width="2" stroke-linecap="round" stroke-linejoin="round"/><path d="M52 48L66 63L93 34" fill="none" stroke="#8a622f" stroke-width="4" stroke-linecap="round" stroke-linejoin="round"/></g>
<text x="600.0" y="155" font-size="18" fill="#2c2622" font-weight="700" text-anchor="middle">실행 후 확인</text>
<text x="600.0" y="182" font-size="15" fill="#6e6258" font-weight="400" text-anchor="middle">계획 확인 후 실행</text>
<text x="600.0" y="205" font-size="15" fill="#6e6258" font-weight="400" text-anchor="middle">결과·기록에서 파일 열기</text>
</g></svg>
